inDegrees=no
num_controls=7
num_derivatives=13
num_iterations=51
num_multipliers=7
num_parameters=0
num_slacks=7
num_states=26
objective=0.433692
objective_accelerations=0.069358
objective_balance=0.003288
objective_effort=0.027576
objective_height=0.328166
objective_ligament=0.005304
solver_duration=743.674314
status=Solve_Succeeded
success=true
DataType=double
version=3
OpenSimVersion=4.5
endheader
time	/jointset/ground_pelvis/pelvis_tilt/value	/jointset/ground_pelvis/pelvis_tx/value	/jointset/ground_pelvis/pelvis_ty/value	/jointset/hip_l/hip_flexion_l/value	/jointset/hip_l/hip_adduction_l/value	/jointset/hip_l/hip_rotation_l/value	/jointset/back/lumbar_extension/value	/jointset/patellofemoral_l/patellar_flexion_l/value	/jointset/knee_l/knee_flexion_l/value	/jointset/knee_l/knee_adduction_l/value	/jointset/knee_l/knee_rotation_l/value	/jointset/ankle_l/ankle_angle_l/value	/jointset/subtalar_l/subtalar_angle_l/value	/jointset/ground_pelvis/pelvis_tilt/speed	/jointset/ground_pelvis/pelvis_tx/speed	/jointset/ground_pelvis/pelvis_ty/speed	/jointset/hip_l/hip_flexion_l/speed	/jointset/hip_l/hip_adduction_l/speed	/jointset/hip_l/hip_rotation_l/speed	/jointset/back/lumbar_extension/speed	/jointset/patellofemoral_l/patellar_flexion_l/speed	/jointset/knee_l/knee_flexion_l/speed	/jointset/knee_l/knee_adduction_l/speed	/jointset/knee_l/knee_rotation_l/speed	/jointset/ankle_l/ankle_angle_l/speed	/jointset/subtalar_l/subtalar_angle_l/speed	/forceset/tau_hip_flexion_l	/forceset/tau_hip_adduction_l	/forceset/tau_hip_rotation_l	/forceset/tau_knee_flexion_l	/forceset/tau_ankle_angle_l	/forceset/tau_subtalar_angle_l	/forceset/tau_lumbar_extension	lambda_cid13_p0	lambda_cid13_p1	lambda_cid13_p2	lambda_cid13_p3	lambda_cid13_p4	lambda_cid13_p5	lambda_cid14_p0	/jointset/ground_pelvis/pelvis_tilt/accel	/jointset/ground_pelvis/pelvis_tx/accel	/jointset/ground_pelvis/pelvis_ty/accel	/jointset/hip_l/hip_flexion_l/accel	/jointset/hip_l/hip_adduction_l/accel	/jointset/hip_l/hip_rotation_l/accel	/jointset/back/lumbar_extension/accel	/jointset/patellofemoral_l/patellar_flexion_l/accel	/jointset/knee_l/knee_flexion_l/accel	/jointset/knee_l/knee_adduction_l/accel	/jointset/knee_l/knee_rotation_l/accel	/jointset/ankle_l/ankle_angle_l/accel	/jointset/subtalar_l/subtalar_angle_l/accel	gamma_cid13_p0	gamma_cid13_p1	gamma_cid13_p2	gamma_cid13_p3	gamma_cid13_p4	gamma_cid13_p5	gamma_cid14_p0
0.5	-0.3823846661635175	-0.04815905928364278	0.7178085702868301	1.27475078832782	-0.4442571220775473	-0.1608959568376596	-0.2562280608704143	0.9716203784535863	0.9716203784535851	-0.1009060520294337	-0.1551610894548375	0.1586827494423983	-0.01399158338737875	-0.8393527973207096	-0.2187705250549475	-0.7139551887795266	2.960379111331769	-0.184580801835251	0.8729701723127489	-0.09877878137315764	2.419129166250483	2.419129166250451	0.2189889309666152	-0.1053282567080988	0.5306846798713872	0.06458682767998254	-0.189932058479882	0.02339913043656934	-0.01029685936375741	-0.2272437375216347	0.05409379813663917	0.03918349663326923	0.1808280099278324	-14.50378085308408	-16.87710639965441	5.095242250693771	-5.587569194727275	-513.4753761686452	-54.56120641329235	-17.19807119582658	1.254018295743897	0.7375930984488179	-0.6653808707135868	-1.526523811251001	0.9404478315281434	-0.4385798094247322	1.072585874605877	-1.578657545709231	-1.578657545709237	0.3529459139200519	0.1162802657269589	-1.103447769908786	0.50970394148158	-1.015434193364236e-06	8.036937260154674e-07	8.010030227124924e-06	9.036231322250208e-07	-1.376727937643463e-06	1.72108171397175e-06	-9.453381617739077e-07
0.51	-0.3907130778430283	-0.05030958434098416	0.710637445497882	1.30427219119086	-0.4460577895547134	-0.1521816127458473	-0.2571638592121065	0.9957286436014372	0.9957286436014439	-0.09870859168118844	-0.1562057691291726	0.1639326017959845	-0.01332352829360183	-0.8261849305116721	-0.2113150778506404	-0.7201054103133017	2.943476728398719	-0.1755459281803282	0.8698441971975732	-0.08844119416246185	2.402179332020374	2.402179332020339	0.2204289190853294	-0.1035716143361755	0.51917146590388	0.06897968290016254	-0.1964469585260142	0.02324960513979227	-0.009964029512994079	-0.2311576515098576	0.05356914938476291	0.03920301002804896	0.1858518981113002	-14.96772371963507	-16.7414298580934	5.001741134605393	-5.399876009469278	-518.6706427746808	-54.34707309561318	-16.09876919979077	1.369703612463521	0.7526190376482162	-0.5654593921898978	-1.835994963960913	0.884870471191156	-0.258600206766247	1.005299064981396	-1.804639514801059	-1.80463951480143	0.02867794587433573	0.2123956742514029	-1.192264781488978	0.3963026401181239	-9.550655655958791e-07	9.614448103570277e-07	7.974787217844924e-06	9.355182244845434e-07	-1.314500825811748e-06	1.966534018883015e-06	-9.213097507064804e-07
0.52	-0.3989055043066546	-0.05238493522503718	0.7034096951740979	1.333611790338638	-0.4477681356275907	-0.1435003271740186	-0.2579980908975555	1.019657111776371	1.019657111776373	-0.09649890091474593	-0.1572314744895089	0.1690639206956331	-0.01261309938205697	-0.8121557541434452	-0.2037356903972743	-0.7252802957463376	2.924018368280499	-0.1665165209767313	0.8663584683143101	-0.0784654501245705	2.383169771664691	2.383169771664654	0.2214350146051366	-0.1015333939112011	0.5069779890836794	0.07306159123362176	-0.2029618585721688	0.02310007984302559	-0.009631199662753241	-0.2350715654980647	0.05304450063289583	0.03922252342285557	0.1908757862947431	-15.4304755977946	-16.60591338735392	4.908215933574006	-5.280228724065905	-523.8843485305869	-54.22059578743429	-15.01822040911681	1.42628020758179	0.7623811482605823	-0.4703136505657338	-2.037719248285108	0.9393545412629642	-0.5105305630422161	1.000217240045099	-1.99060277082392	-1.990602770823921	0.2661673941386749	0.1725958763371659	-1.239500340447468	0.4475145641374371	-8.92138103892675e-07	1.019163597062417e-06	7.809619685561285e-06	9.34324192557522e-07	-1.238716919242975e-06	2.185611439667344e-06	-8.982775463591404e-07
0.53	-0.4069535597044392	-0.05438396850381007	0.6961350666582854	1.362744583753466	-0.4493880986821412	-0.1348558898658561	-0.2587341830023944	1.043385700850303	1.043385700850317	-0.09428087167517825	-0.1582357862168002	0.1740701857773542	-0.0118631365604123	-0.797315699998296	-0.196059718608689	-0.7294799856125856	2.902135169970691	-0.1574778777103028	0.8624568478966023	-0.06881243185143648	2.362238812118707	2.362238812118704	0.2221121471462592	-0.09931714018854847	0.4941808982438292	0.07688623197198098	-0.2096157593391091	0.02284729410326627	-0.009120931454933827	-0.2388021999503482	0.05209759001381097	0.03909990233522273	0.19595767278115	-16.03548081954791	-16.37174443567177	4.785232044741351	-4.939083619749515	-529.1111916834548	-53.99387374958328	-13.95665510549384	1.533667992454027	0.7720789458514511	-0.3702231663495347	-2.32456388276191	0.8847382380225891	-0.3415609865437542	0.9389249699770872	-2.190549961103292	-2.19054996109801	-0.04007026394767271	0.2494930783538797	-1.313779818344171	0.3421491389892524	-7.023528405328488e-07	6.374689214635723e-07	5.978739008512864e-06	6.75028053467283e-07	-9.780425948918115e-07	1.785479781759015e-06	-7.221635031195075e-07
0.54	-0.4148490545658782	-0.05630586731435828	0.688823355941469	1.391646356433105	-0.4509179515002924	-0.1262527854029514	-0.2593755287546956	1.066895738845863	1.066895738845876	-0.09205778239979882	-0.1592172648152306	0.1789456866781582	-0.01107648526932354	-0.7816436468742469	-0.1883087967523437	-0.7326967359466752	2.877814221243542	-0.1484944736962767	0.8580918992625484	-0.05951617961712537	2.339459555988018	2.339459555988051	0.2224470217655151	-0.09696676814091747	0.4808251529003615	0.08039928512250491	-0.2162696601060797	0.02259450836349493	-0.008610663247506761	-0.2425328344026276	0.05115067939472489	0.03897728124757584	0.2010395592675335	-16.63993115273252	-16.1363512935533	4.66054930730497	-4.65920616353141	-534.3632121071491	-53.84924886881593	-12.91423877334721	1.592680003361761	0.7773711618125546	-0.2737257441340169	-2.525269331753411	0.9283066907824733	-0.6031962063113945	0.9288640322806353	-2.360262087764732	-2.360262087764734	0.1977158097653709	0.1994195413328344	-1.351231241170967	0.3851970465703911	-3.722142647018642e-07	-2.303853294506018e-07	2.304941660660832e-06	1.301721362390126e-07	-5.128086593771493e-07	7.002657389141229e-07	-3.766823189777612e-07
